<?xml version="1.0" encoding="utf-8"?>
<!-- Svg Vector Icons : http://www.onlinewebfonts.com/icon -->
<!DOCTYPE svg PUBLIC "-//W3C//DTD SVG 1.1//EN" "http://www.w3.org/Graphics/SVG/1.1/DTD/svg11.dtd">
<svg version="1.1" xmlns="http://www.w3.org/2000/svg" xmlns:xlink="http://www.w3.org/1999/xlink" x="0px" y="0px" viewBox="0 0 1000 1000" enable-background="new 0 0 1000 1000" xml:space="preserve">
<metadata> Svg Vector Icons : http://www.onlinewebfonts.com/icon </metadata>
<g><g transform="translate(0.000000,511.000000) scale(0.100000,-0.100000)"><path style="fill: blue" d="M1570.8,4139.3c-210.6-120.6-274-402.8-137-599c177.9-251.5,562.2-245.3,711.5,12.3c71.6,122.7,83.8,214.7,45,345.5C2112.6,4163.8,1816.1,4280.3,1570.8,4139.3z"/><path style="fill: blue" d="M5150.6,3855.1c-65.4-38.8-130.8-151.3-130.8-222.8c0-179.9,177.9-316.9,349.6-269.9c226.9,63.4,271.9,370,73.6,490.7C5359.1,3904.2,5232.3,3904.2,5150.6,3855.1z"/><path style="fill: blue" d="M8307.1,3536.2c-697.1-116.5-1649.9-478.4-2424.7-917.9c-1298.2-736-2105.8-1408.6-2610.7-2169.1C3081.6,162.9,3003.9,13.6,2963-154c-83.8-331.2,45-719.6,280.1-838.2c155.4-79.7,366-36.8,505,100.2c116.5,116.5,87.9,220.8-118.6,421.2c-98.1,96.1-130.8,145.1-155.4,231c-87.9,302.6,75.6,576.5,748.3,1253.2c627.6,629.7,1214.4,1044.7,2118,1496.5c689,345.5,1112.2,507,1848.2,709.4c517.3,141.1,840.2,249.4,854.6,282.1c6.1,16.3-2,36.8-18.4,47C8981.8,3575,8489.1,3566.8,8307.1,3536.2z"/><path style="fill: blue" d="M9396.8,2622.3c-263.7-179.9-141-588.8,177.9-588.8c241.2,0,396.6,243.3,292.3,453.9c-61.3,122.7-128.8,167.6-278,175.8C9486.8,2669.3,9456.1,2663.2,9396.8,2622.3z"/><path style="fill: blue" d="M2024.6,1859.7c-34.8-32.7-51.1-71.6-51.1-116.5c2-216.7,296.4-237.1,339.4-24.5c8.2,49.1,0,75.7-42.9,126.8C2200.5,1929.2,2098.2,1935.4,2024.6,1859.7z"/><path style="fill: blue" d="M7217.5,1616.5c-498.8-83.8-1087.6-331.2-1510.8-633.8C5500.1,833.4,5447,768,5489.9,714.9c53.2-63.4,300.6,10.2,856.6,253.5c460,200.4,637.8,253.5,881.1,255.5c151.3,0,222.9-8.2,327.1-45c400.7-139,576.6-480.4,447.7-868.9c-102.2-306.7-321-705.3-566.3-1032.4c-314.8-419.1-621.5-731.9-1510.8-1533.3c-286.2-259.6-408.9-382.3-400.7-404.8c6.1-20.4,24.5-24.5,55.2-16.3c122.7,36.8,517.3,282.1,870.9,545.9c106.3,79.7,261.7,192.2,343.5,253.5c198.3,147.2,558.1,513.1,803.4,817.8c607.2,756.4,940.4,1447.4,940.4,1950.4c0,366-155.4,574.5-513.1,693.1C7857.4,1641,7456.7,1657.3,7217.5,1616.5z"/><path style="fill: blue" d="M5412.3,326.4c-607.2-169.7-1288-689-1292.1-987.5c0-26.6,24.5-69.5,53.1-100.2c49.1-49.1,59.3-51.1,239.2-42.9c214.7,12.3,363.9,55.2,635.8,192.2c470.2,237.2,850.5,599,850.5,809.6c0,28.6-18.4,73.6-38.8,100.2c-32.7,40.9-59.3,49.1-188.1,53.2C5584,355,5475.6,342.8,5412.3,326.4z"/><path style="fill: blue" d="M5776.1-352.3c-94-36.8-261.7-182-674.7-588.8c-607.2-597-928.2-832.1-1543.5-1134.7c-748.3-368-1322.7-505-2054.6-486.6c-337.3,10.2-396.6,16.3-541.8,63.4C614-2384.5,391.1-2180,284.8-1873.4c-26.6,73.6-59.3,135-73.6,135c-73.6,0-134.9-298.5-102.2-496.8c59.3-347.5,300.5-609.2,646-699.2c590.8-151.3,1476.1-128.8,2077.1,51.1c803.5,239.2,1987.2,948.6,2645.5,1584.4c366,353.7,502.9,564.2,502.9,772.8C5980.6-372.8,5900.9-305.3,5776.1-352.3z"/><path style="fill: blue" d="M1268.2-526.1c-149.2-130.8,14.3-366,190.1-274c69.5,34.8,85.9,69.5,85.9,165.6C1544.2-499.5,1376.6-434.1,1268.2-526.1z"/><path style="fill: blue" d="M4386-3194.1c-116.5-42.9-198.3-208.5-163.6-333.2c87.9-304.6,531.6-241.2,531.6,75.6C4754-3265.6,4559.7-3130.7,4386-3194.1z"/><path style="fill: blue" d="M1687.3-3564.1c-141.1-69.5-165.6-231-53.2-343.5c90-90,202.4-96.1,296.4-16.4c120.6,102.2,94.1,306.7-47,366C1791.6-3519.1,1775.2-3519.1,1687.3-3564.1z"/></g></g>
</svg>