<?xml version="1.0" encoding="utf-8"?>
<!-- Svg Vector Icons : http://www.onlinewebfonts.com/icon -->
<!DOCTYPE svg PUBLIC "-//W3C//DTD SVG 1.1//EN" "http://www.w3.org/Graphics/SVG/1.1/DTD/svg11.dtd">
<svg version="1.1" xmlns="http://www.w3.org/2000/svg" xmlns:xlink="http://www.w3.org/1999/xlink" x="0px" y="0px" viewBox="0 0 1000 1000" enable-background="new 0 0 1000 1000" xml:space="preserve">
<metadata> Svg Vector Icons : http://www.onlinewebfonts.com/icon </metadata>
<g><g transform="translate(0.000000,511.000000) scale(0.100000,-0.100000)"><path style="fill:blue" d="M1014.6,3790.6c-26.6-10.2-45-28.6-40.9-43c12.3-32.7,266-116.6,865.5-284.4c783.6-218.9,1086.4-333.5,1759.6-662.9c914.6-448.1,1546.8-890,2179-1524.3c603.6-603.6,759.1-822.5,773.4-1096.7c10.2-180-14.3-233.2-200.5-429.7c-149.4-157.5-180-225.1-139.1-311c38.9-77.8,184.1-182.1,292.6-204.6c208.7-45,388.8,59.3,493.1,286.4c75.7,165.7,92.1,437.8,38.9,624C6911.2,580.3,6344.5,1296.5,5716.4,1810c-693.6,566.8-1720.7,1184.7-2555.5,1532.5c-452.2,190.3-1035.3,364.2-1462.9,439.9C1499.5,3815.1,1090.3,3821.2,1014.6,3790.6z"/><path style="fill:red" d="M1278.5,2747.1c-632.2-59.3-1033.2-343.7-1149.9-816.4c-14.3-61.4-26.6-190.3-28.6-286.4c0-153.5,8.2-188.2,61.4-294.6c61.4-122.8,116.6-178,147.3-149.4c8.2,10.2,12.3,155.5,8.2,323.3c-6.1,296.7-4.1,311,49.1,417.4c188.2,388.7,779.5,595.4,1483.4,521.7c840.9-88,1673.6-339.7,2256.8-683.4c390.8-229.2,671.1-466.5,947.3-802c306.9-374.4,611.8-611.8,710-558.6c49.1,28.7,43,83.9-24.6,218.9c-243.5,476.7-734.5,922.8-1524.3,1385.2C3383.9,2509.7,2101,2824.8,1278.5,2747.1z"/><path style="fill:red" d="M5982.3,2229.4c0-16.4,231.2-266,513.6-556.5C7226.3,920,7506.6,572.1,7729.7,142.5c233.2-454.2,282.3-728.4,169.8-957.5c-114.6-235.3-335.5-362.2-650.6-380.6c-200.5-10.2-327.4,18.4-908.4,198.4c-640.4,196.4-755,180.1-615.8-98.2c108.4-212.8,382.6-394.9,759.1-503.3c325.3-94.1,538.1-120.7,982.1-120.7l409.2-2l135,65.5c376.5,186.2,593.3,669,501.3,1111c-34.8,169.8-157.5,437.8-335.5,736.6C7782.9,852.5,7060.6,1580.8,6266.8,2121C6068.3,2254,5982.3,2286.7,5982.3,2229.4z"/><path style="fill:blue" d="M2096.9,1859.1c-787.7-178-814.3-959.6-73.7-2107.4c341.7-529.9,920.7-1172.4,1289-1432.2c79.8-55.3,221-159.6,317.1-231.2c212.8-161.7,458.3-321.2,634.3-417.4c171.9-94.1,216.9-108.4,231.2-69.6c8.2,20.5-85.9,118.7-288.5,302.8C3187.5-1175.2,2921.5-907.1,2596.2-473.4c-300.8,401-550.4,879.8-607.7,1164.2c-77.7,396.9,247.6,750.9,722.3,783.6c257.8,18.4,497.2-49.1,1072.1-300.8C4253.4,967,4513.3,901.6,4544,981.4c20.5,53.2-57.3,133-270.1,278.3c-366.2,251.7-812.3,452.2-1241.9,560.6C2763.9,1885.7,2301.5,1906.2,2096.9,1859.1z"/><path style="fill:red" d="M3222.3,997.7c-341.7-92.1-519.7-403.1-421.5-734.5c71.6-249.6,317.1-669.1,585.2-1002.6c656.8-814.3,2111.5-1853.7,3322.8-2373.4c634.3-272.1,1538.6-495.1,1935.5-476.7c114.6,6.1,131,10.2,137.1,49.1c8.2,55.2-116.6,106.4-609.7,249.6c-662.9,194.4-1039.4,329.4-1538.6,558.6C5487.2-2208.4,4216.6-1271.3,3696.9-571.6c-216.9,290.5-411.2,722.2-384.6,847c18.4,81.8,133,169.8,304.9,233.3c253.7,94.1,298.7,188.2,163.7,335.5C3643.7,995.7,3428.9,1055,3222.3,997.7z"/><path style="fill:white" d="M4255.5,600.8c-192.3-59.3-173.9-231.2,51.2-478.8c376.5-413.3,1192.8-779.5,1477.2-660.9c184.1,77.7,133,263.9-153.4,538.1C5333.7,285.7,4914.3,512.8,4546,588.5C4372.1,625.4,4341.4,625.4,4255.5,600.8z"/><path style="fill:blue" d="M4091.8-123.5c-43-40.9-53.2-71.6-53.2-149.4c0-345.8,523.8-890,1432.2-1489.5c1111-734.5,1890.5-1012.8,2827.6-1012.8c296.7,0,730.4,47.1,953.4,104.3c272.1,67.5,499.2,268,599.5,523.8c63.4,167.8,65.5,446,2.1,585.2c-24.6,55.2-55.2,96.2-67.5,92.1c-12.3-4.1-38.9-59.3-59.4-124.8c-106.4-343.8-417.4-595.4-836.8-681.3c-141.2-26.6-245.5-32.7-572.9-22.5c-517.6,14.3-851.1,75.7-1342.2,251.7c-433.8,153.4-1043.5,491-1450.6,802.1c-69.6,51.2-331.4,298.7-585.2,546.3C4341.4-109.2,4200.3-15.1,4091.8-123.5z"/></g></g>
</svg>